<?xml version="1.0" encoding="UTF-8"?>
<svg width="904px" height="227px" viewBox="0 0 904 227" version="1.1" xmlns="http://www.w3.org/2000/svg" xmlns:xlink="http://www.w3.org/1999/xlink">
    <title>Visva wordmark horizontal</title>
    <defs>
        <linearGradient x1="50%" y1="0%" x2="50%" y2="100%" id="linearGradient-1">
            <stop stop-color="#FFB840" offset="0%"></stop>
            <stop stop-color="#FD9D09" offset="100%"></stop>
        </linearGradient>
        <linearGradient x1="50%" y1="0%" x2="50%" y2="100%" id="linearGradient-2">
            <stop stop-color="#27AFC5" offset="0%"></stop>
            <stop stop-color="#40DEF8" offset="100%"></stop>
        </linearGradient>
    </defs>
    <g id="Visva-wordmark-horizontal" stroke="none" stroke-width="1" fill="none" fill-rule="evenodd">
        <g id="Group" transform="translate(0.231270, 2.540251)">
            <path d="M111.117538,176.677857 C146.947606,176.677857 175.993616,147.722052 175.993616,112.003257 L221.544905,112.003257 C221.544905,173.181193 171.950388,222.77571 110.772452,222.77571 C49.5945162,222.77571 -1.42108547e-14,173.181193 -1.42108547e-14,112.003257 L-1.42108547e-14,112.003257 L46.2414598,112.003257 C46.2414598,147.722052 75.2874693,176.677857 111.117538,176.677857 Z" id="Combined-Shape" fill="url(#linearGradient-1)"></path>
            <path d="M198.031308,64.6745995 C233.861377,64.6745995 262.907386,35.718795 262.907386,1.42108547e-14 L308.458675,1.42108547e-14 C308.458675,61.1779361 258.864159,110.772452 197.686223,110.772452 C136.508286,110.772452 86.9137703,61.1779361 86.9137703,1.42108547e-14 L86.9137703,1.42108547e-14 L133.15523,1.42108547e-14 C133.15523,35.718795 162.20124,64.6745995 198.031308,64.6745995 Z" id="Combined-Shape" fill="url(#linearGradient-2)" transform="translate(197.686223, 55.386226) rotate(-180.000000) translate(-197.686223, -55.386226) "></path>
            <path d="M833.494661,78.562782 C841.988076,78.562782 849.286995,80.4829342 855.391637,84.3232963 C861.496278,88.1636584 866.008337,93.394418 868.927949,100.015732 L868.926779,99.9917143 C869.173147,100.54884 869.444378,101.079952 869.760007,101.564974 C883.994113,123.438273 895.193899,147.413631 902.770067,172.879189 L902.76873,190.793493 L868.927949,190.793493 L868.927949,170.731012 C866.008337,177.352326 861.496278,182.583085 855.391637,186.423447 C849.286995,190.263809 841.988076,192.183962 833.494661,192.183962 C824.337698,192.183962 816.143002,189.899642 808.910329,185.330936 C801.677655,180.762229 795.971228,174.174121 791.790875,165.566412 C787.610522,156.958704 785.520377,146.894458 785.520377,135.373372 C785.520377,123.719859 787.610522,113.622507 791.790875,105.081012 C795.971228,96.5395168 801.677655,89.9845143 808.910329,85.4158077 C816.143002,80.847101 824.337698,78.562782 833.494661,78.562782 Z M844.046025,107.828843 C836.820601,107.828843 831.007505,110.183269 826.606565,114.892192 C822.205624,119.601115 820.005187,126.141187 820.005187,134.512605 C820.005187,142.884023 822.205624,149.424096 826.606565,154.133018 C831.007505,158.841941 836.820601,161.196367 844.046025,161.196367 C851.140079,161.196367 856.953174,158.77654 861.485486,153.936814 C866.017798,149.097088 868.28392,142.622417 868.28392,134.512605 C868.28392,126.271991 866.017798,119.764619 861.485486,114.990294 C856.953174,110.21597 851.140079,107.828843 844.046025,107.828843 Z" id="Combined-Shape" fill="#32C4DC"></path>
            <path d="M902.76873,79.9532509 L902.770067,172.879189 C895.193899,147.413631 883.994113,123.438273 869.760007,101.564974 C869.444378,101.079952 869.173147,100.54884 868.926779,99.9917143 L868.927949,79.9532509 L902.76873,79.9532509 Z" id="Combined-Shape" fill="#F7C834"></path>
            <path d="M728.758104,117.778482 C738.414907,124.227365 747.316155,131.691455 755.316277,140.009327 L755.314342,140.007782 L737.593298,190.462429 L695.508218,190.462429 L656.202342,78.562782 L661.028297,92.2986624 C674.582567,94.0877927 687.567761,97.5540855 699.781502,102.473124 L699.776342,102.470782 L716.749273,156.972749 L740.769531,78.562782 Z" id="Combined-Shape" fill="#FFAD2A" fill-rule="nonzero"></path>
            <path d="M656.202342,78.562782 L661.028297,92.2986624 C674.582567,94.0877927 687.567761,97.5540855 699.781502,102.473124 L699.776342,102.470782 L699.819841,102.611828 C691.271764,110.402301 681.916447,117.322236 671.894069,123.231456 L656.202342,78.562782 Z" id="Combined-Shape" fill="#F7C834" fill-rule="nonzero"></path>
            <path d="M776.899175,78.562782 L755.316277,140.009327 C747.316155,131.691455 738.414907,124.227365 728.758104,117.778482 L740.769531,78.562782 L776.899175,78.562782 Z M692.331986,78.562782 L699.781502,102.473124 C687.567761,97.5540855 674.582567,94.0877927 661.028297,92.2986624 L656.202342,78.562782 L692.331986,78.562782 Z" id="Combined-Shape" fill="#32C4DC" fill-rule="nonzero"></path>
            <path d="M639.942145,140.935248 C643.885334,145.570167 645.856899,151.794109 645.856899,159.60726 C645.856899,165.963721 644.148209,171.591754 640.730778,176.491526 C637.313348,181.391298 632.384435,185.231603 625.943893,188.012555 C619.503351,190.793506 611.879966,192.183962 603.07351,192.183962 C588.220831,192.183962 576.325722,188.873354 567.387826,182.25204 C558.449931,175.630726 552.995267,166.162389 551.023673,153.846745 L583.554821,153.846745 C584.08058,158.614091 586.085004,162.255759 589.568154,164.771859 C593.051305,167.287958 597.553045,168.545989 603.07351,168.545989 C606.885259,168.545989 609.776888,167.652125 611.748483,165.86437 C613.720077,164.076615 614.70586,161.726084 614.70586,158.812706 C614.70586,154.972344 612.898592,152.22454 609.284002,150.569211 C606.246695,149.178254 601.608512,147.717187 595.369348,146.185978 C610.05853,145.441851 624.249577,142.807658 637.705088,138.524304 C638.474634,139.282005 639.220495,140.087003 639.942145,140.935248 Z" id="Combined-Shape" fill="#FFAD2A"></path>
            <path d="M630.894203,91.1436085 C637.914481,97.8869654 642.375963,106.471102 644.279631,116.899998 L612.734275,116.899998 C611.814198,112.397505 609.744054,108.855155 606.523783,106.272842 C603.303512,103.69053 599.261804,102.399393 594.398537,102.399393 C590.586787,102.399393 587.695159,103.227045 585.723564,104.882373 C583.75197,106.537702 582.766187,108.888233 582.766187,111.934038 C582.766187,115.377121 584.573455,117.959394 588.188045,119.680936 C591.802635,121.402478 597.487314,123.123994 605.242253,124.845535 L606.961126,125.256985 C614.598991,127.110635 620.926525,128.992959 625.943893,130.904007 C630.346663,132.580963 634.266861,135.119694 637.704563,138.520254 C624.250495,142.807366 610.060465,145.441492 595.372486,146.189196 C594.18559,145.895442 592.94092,145.601637 591.638318,145.305293 C583.489061,143.583751 576.78574,141.729811 571.528154,139.743417 C566.270568,137.757023 561.735969,134.545734 557.924219,130.109453 C554.960293,126.659907 553.148724,122.229579 552.489484,116.818385 C575.351312,101.912579 602.193987,92.7189097 630.894203,91.1436085 Z" id="Combined-Shape" fill="#F7C834"></path>
            <path d="M595.187171,78.562782 C609.119773,78.562782 620.259115,82.0720257 628.605532,89.0906185 C629.397127,89.7562795 630.160642,90.4421893 630.896076,91.1483484 C602.19438,92.7187752 575.351479,101.912469 552.488871,116.816277 C552.30091,115.270528 552.206624,113.642412 552.206624,111.934038 C552.206624,102.002067 555.952597,93.9572908 563.444657,87.7994688 C570.936716,81.6416468 581.517448,78.562782 595.187171,78.562782 Z" id="Combined-Shape" fill="#36CBE3"></path>
            <path d="M494.123737,48.5369378 C494.123737,43.285755 495.938116,38.9434958 499.566928,35.5100301 C503.195739,32.0765644 507.990883,30.3598573 513.952502,30.3598573 C519.914122,30.3598573 524.709266,32.0765644 528.338077,35.5100301 C531.966889,38.9434958 533.781268,43.285755 533.781268,48.5369378 C533.781268,53.653475 531.966889,57.9284123 528.338077,61.361878 C524.709266,64.7953437 519.914122,66.5120508 513.952502,66.5120508 C507.990883,66.5120508 503.195739,64.7953437 499.566928,61.361878 C495.938116,57.9284123 494.123737,53.653475 494.123737,48.5369378 Z" id="Path" fill="#37CEE7" fill-rule="nonzero"></path>
            <path d="M495.847491,180.94456 C504.444366,163.26525 516.193518,147.45667 530.329745,134.20675 L530.329745,134.20675 L530.332787,78.562782 L530.332787,190.462429 L495.847977,190.462429 Z" id="Combined-Shape" fill="#FFAD2A" fill-rule="nonzero"></path>
            <path d="M530.332787,78.562782 L530.329745,134.20675 C516.193518,147.45667 504.444366,163.26525 495.847491,180.94456 L495.847977,78.562782 L530.332787,78.562782 Z" id="Combined-Shape" fill="#32C4DC" fill-rule="nonzero"></path>
            <path d="M397.486865,78.562782 L421.904152,156.972749 L445.92441,78.562782 L482.054054,78.562782 L442.748177,190.462429 L400.663097,190.462429 L386.514608,150.184335 C392.191754,135.788863 399.045601,122.010758 406.951884,108.962088 L406.951884,108.962088 L397.486865,78.562782 Z" id="Combined-Shape" fill="#32C4DC" fill-rule="nonzero"></path>
            <path d="M397.486865,78.562782 L406.951884,108.962088 C399.045051,122.011666 392.1908,135.79078 386.513423,150.18734 L361.35722,78.562782 L397.486865,78.562782 Z" id="Combined-Shape" fill="#FFAD2A" fill-rule="nonzero"></path>
        </g>
    </g>
</svg>